<svg id="图层_1" data-name="图层 1" xmlns="http://www.w3.org/2000/svg" xmlns:xlink="http://www.w3.org/1999/xlink" viewBox="0 0 19.38 19.38"><defs><style>.cls-1{fill:none;}.cls-2{clip-path:url(#clip-path);}.cls-3{fill:#2c2c2c;}</style><clipPath id="clip-path" transform="translate(-168.17 -223.64)"><rect class="cls-1" x="168.17" y="223.64" width="19.38" height="19.4"/></clipPath></defs><g class="cls-2"><path class="cls-3" d="M184.71,226.48a9.69,9.69,0,1,0,0,13.7,9.67,9.67,0,0,0,0-13.7Zm-9.37,11.21a1,1,0,1,1-1.35-1.34,1,1,0,0,1,1.35,1.34Zm4.15,0a.78.78,0,0,1-1.55-.24h0a3,3,0,0,0-.06-.91,3.52,3.52,0,0,0-1-1.8,3.47,3.47,0,0,0-1.79-1,3.09,3.09,0,0,0-.86-.06.79.79,0,0,1-.85-.39.77.77,0,0,1,.14-.93.75.75,0,0,1,.42-.22h0a4.92,4.92,0,0,1,4,1.46,5.06,5.06,0,0,1,1.48,4.06Zm3.53.15a.78.78,0,0,1-1.32.43.82.82,0,0,1-.24-.68,5.46,5.46,0,0,0-.1-1.8,7,7,0,0,0-5.49-5.48,6,6,0,0,0-1.79-.11h0a.8.8,0,0,1-.9-.66.78.78,0,0,1,.65-.9,7.33,7.33,0,0,1,2.24.09,8.11,8.11,0,0,1,2.15.71,8.44,8.44,0,0,1,2.31,1.66l0,0h0a8.64,8.64,0,0,1,1.66,2.32,8.54,8.54,0,0,1,.71,2.14,7.19,7.19,0,0,1,.08,2.25Zm0,0" transform="translate(-168.17 -223.64)"/></g></svg>