<?xml version="1.0" encoding="utf-8"?>
<!-- Generator: Adobe Illustrator 25.0.0, SVG Export Plug-In . SVG Version: 6.00 Build 0)  -->
<svg version="1.1" id="图层_1" xmlns="http://www.w3.org/2000/svg" xmlns:xlink="http://www.w3.org/1999/xlink" x="0px" y="0px"
	 viewBox="0 0 595.28 841.89" style="enable-background:new 0 0 595.28 841.89;" xml:space="preserve">
<style type="text/css">
	.st0{clip-path:url(#SVGID_2_);fill:#1296DB;}
</style>
<g>
	<g>
		<defs>
			<rect id="SVGID_1_" x="40" y="158.46" width="450" height="484.42"/>
		</defs>
		<clipPath id="SVGID_2_">
			<use xlink:href="#SVGID_1_"  style="overflow:visible;"/>
		</clipPath>
		<path class="st0" d="M424.1,229.32c-87.87-94.48-230.32-94.48-318.19,0c-87.87,94.48-87.87,247.63,0,342.11
			c87.87,94.48,230.32,94.48,318.19,0C511.97,476.95,511.97,323.8,424.1,229.32L424.1,229.32z M206.56,509.28
			c-5.52,6.24-13.76,8.77-21.51,6.62c-7.76-2.15-13.82-8.66-15.84-16.99c-2.02-8.34,0.32-17.19,6.12-23.14
			c8.67-8.9,22.35-8.73,30.83,0.37C214.64,485.23,214.82,499.94,206.56,509.28L206.56,509.28z M302.9,509.98
			c-1.66,10.49-10.82,17.62-20.61,16.04c-9.79-1.58-16.6-11.3-15.31-21.85h-0.02c-0.01,0.05-0.02,0.1-0.02,0.15v-0.18
			c0.14-1.32,0.96-10.45-1.39-22.67c-3.26-17.1-11.19-32.76-22.77-44.99c-11.3-12.41-25.8-20.89-41.62-24.35
			c-6.54-1.46-13.24-1.96-19.9-1.47c-7.89,1.86-15.97-2.12-19.81-9.75c-3.85-7.63-2.53-17.08,3.22-23.17
			c2.68-2.89,6.15-4.8,9.9-5.45v-0.11c2.09-0.37,52.1-8.29,93.91,36.66C310.2,453.7,303.25,507.69,302.9,510V509.98z M385.03,513.81
			c-1.06,7.26-5.82,13.26-12.32,15.53c-6.5,2.27-13.63,0.44-18.46-4.76c-4.23-4.41-6.26-10.72-5.46-17
			c0.04-0.18,2.39-18.89-2.37-44.84c-6.24-33.96-21.23-63.95-44.51-89.16c-23.44-25.05-51.34-41.15-82.94-47.85
			c-24.14-5.13-41.52-2.62-41.73-2.6h0.1h-0.02c-10,1.44-19.26-5.89-20.94-16.58c-1.56-10.65,5.19-20.66,15.09-22.37
			c0.9-0.15,22.44-3.69,52.16,2.2c17.27,3.41,34.03,9.33,49.81,17.61c19.93,10.51,38.09,24.52,53.73,41.45l0.43,0.49l0.45,0.44
			c15.75,16.83,28.78,36.37,38.56,57.82c7.69,16.93,13.19,34.92,16.4,53.53C388.46,489.68,385.19,512.84,385.03,513.81
			L385.03,513.81z M385.03,513.81"/>
	</g>
</g>
</svg>
